<?xml version="1.0" encoding="utf-8"?>
<!-- Generator: Adobe Illustrator 16.0.0, SVG Export Plug-In . SVG Version: 6.00 Build 0)  -->
<!DOCTYPE svg PUBLIC "-//W3C//DTD SVG 1.1//EN" "http://www.w3.org/Graphics/SVG/1.1/DTD/svg11.dtd">
<svg version="1.1" xmlns="http://www.w3.org/2000/svg" xmlns:xlink="http://www.w3.org/1999/xlink" x="0px" y="0px" width="1920px"
	 height="150px" viewBox="0 0 1920 150" enable-background="new 0 0 1920 150" xml:space="preserve">
<g id="_x31__1_">
	<rect y="54" fill="#45B6F4" width="1920" height="96"/>
	<g>
		<rect x="845" y="19" fill="#E1E1DB" width="9" height="131"/>
		<rect x="958" y="19" fill="#E1E1DB" width="11" height="131"/>
		<rect x="850" y="80" fill="#E1E1DB" width="108" height="10"/>
		<rect x="850" y="118" fill="#E1E1DB" width="108" height="9"/>
	</g>
	<rect y="68" opacity="0.3" fill="#23688E" width="1920" height="82"/>
</g>
<g id="_x32_" display="none">
	<g display="inline">
		<rect x="1442" y="110" fill="#E1E1DB" width="8" height="8"/>
		<rect x="1300" y="118" fill="#E1E1DB" width="8" height="8"/>
	</g>
	<g display="inline">
		<rect x="1442" y="110" fill="#23688E" width="8" height="8"/>
		<rect x="1300" y="118" fill="#23688E" width="8" height="8"/>
	</g>
</g>
<g id="_x33_" display="none">
	<g display="inline">
		<rect x="1462" y="75" fill="#E1E1DB" width="8" height="8"/>
		<rect x="1407" y="83" fill="#E1E1DB" width="8" height="8"/>
		<rect x="1263" y="79" fill="#E1E1DB" width="8" height="8"/>
	</g>
	<g display="inline">
		<rect x="1462" y="75" fill="#23688E" width="8" height="8"/>
		<rect x="1407" y="83" fill="#23688E" width="8" height="8"/>
		<rect x="1263" y="79" fill="#23688E" width="8" height="8"/>
	</g>
</g>
<g id="_x34_" display="none">
	<rect x="1419" y="83" display="inline" fill="#23688E" width="8" height="8"/>
	<rect x="1483" y="51" display="inline" fill="#23688E" width="8" height="8"/>
	<rect x="1407" y="51" display="inline" fill="#23688E" width="8" height="8"/>
	<rect x="1250" y="83" display="inline" fill="#23688E" width="8" height="8"/>
	<rect x="1246" y="43" display="inline" fill="#23688E" width="8" height="8"/>
</g>
<g id="_x35_" display="none">
	<rect x="1353" y="71" display="inline" fill="#23688E" width="8" height="8"/>
	<rect x="1499" y="75" display="inline" fill="#23688E" width="8" height="8"/>
	<rect x="1431" y="51" display="inline" fill="#23688E" width="8" height="8"/>
	<rect x="1491" y="15" display="inline" fill="#23688E" width="8" height="8"/>
	<rect x="1415" y="11" display="inline" fill="#23688E" width="8" height="8"/>
	<rect x="1221" y="63" display="inline" fill="#23688E" width="8" height="8"/>
	<rect x="1283" y="67" display="inline" fill="#23688E" width="8" height="8"/>
	<rect x="1225" y="19" display="inline" fill="#23688E" width="8" height="8"/>
</g>
<g id="_x36_" display="none">
	<rect x="1368" y="34" display="inline" fill="#23688E" width="8" height="8"/>
	<rect x="1516" y="59" display="inline" fill="#23688E" width="8" height="8"/>
	<rect x="1439" y="19" display="inline" fill="#23688E" width="8" height="8"/>
	<rect x="1508" y="-7" display="inline" fill="#23688E" width="8" height="8"/>
	<rect x="1443" y="-37" display="inline" fill="#23688E" width="8" height="8"/>
	<rect x="1168" y="38" display="inline" fill="#23688E" width="8" height="8"/>
	<rect x="1249" y="11" display="inline" fill="#23688E" width="8" height="8"/>
	<rect x="1188" y="-33" display="inline" fill="#23688E" width="8" height="8"/>
</g>
<g id="_x37_" display="none">
	<rect x="1401" y="7" display="inline" fill="#23688E" width="8" height="8"/>
	<rect x="1549" y="42" display="inline" fill="#23688E" width="8" height="8"/>
	<rect x="1477" y="-19" display="inline" fill="#23688E" width="8" height="8"/>
	<rect x="1549" y="-15" display="inline" fill="#23688E" width="8" height="8"/>
	<rect x="1481" y="-70" display="inline" fill="#23688E" width="8" height="8"/>
	<rect x="1132" y="57" display="inline" fill="#23688E" width="8" height="8"/>
	<rect x="1221" y="11" display="inline" fill="#23688E" width="8" height="8"/>
	<rect x="1153" y="-49" display="inline" fill="#23688E" width="8" height="8"/>
</g>
<g id="_x38__1_" display="none">
	<rect x="1446" y="34" display="inline" fill="#23688E" width="8" height="8"/>
	<rect x="1580" y="71" display="inline" fill="#23688E" width="8" height="8"/>
	<rect x="1546" y="7" display="inline" fill="#23688E" width="8" height="8"/>
	<rect x="1584" y="26" display="inline" fill="#23688E" width="8" height="8"/>
	<rect x="1514" y="-19" display="inline" fill="#23688E" width="8" height="8"/>
	<rect x="1128" y="67" display="inline" fill="#23688E" width="8" height="8"/>
	<rect x="1197" y="59" display="inline" fill="#23688E" width="8" height="8"/>
	<rect x="1104" y="-19" display="inline" fill="#23688E" width="8" height="8"/>
</g>
<g id="_x39__1_" display="none">
	<rect x="1465" y="71" display="inline" fill="#23688E" width="8" height="8"/>
	<rect x="1567" y="71" display="inline" fill="#23688E" width="8" height="8"/>
	<rect x="1607" y="87" display="inline" fill="#23688E" width="8" height="8"/>
	<rect x="1533" y="30" display="inline" fill="#23688E" width="8" height="8"/>
	<rect x="1087" y="38" display="inline" fill="#23688E" width="8" height="8"/>
</g>
<g id="_x31_0" display="none">
	<rect x="1533" y="63" display="inline" fill="#23688E" width="8" height="8"/>
	<rect x="1091" y="87" display="inline" fill="#23688E" width="8" height="8"/>
</g>
<g id="_x31_1" display="none">
	<rect x="1557" y="106" display="inline" fill="#23688E" width="8" height="8"/>
	<rect x="1083" y="117" display="inline" fill="#23688E" width="8" height="8"/>
</g>
</svg>
