<?xml version="1.0" encoding="utf-8"?>
<!-- Generator: Adobe Illustrator 16.0.0, SVG Export Plug-In . SVG Version: 6.00 Build 0)  -->
<!DOCTYPE svg PUBLIC "-//W3C//DTD SVG 1.1//EN" "http://www.w3.org/Graphics/SVG/1.1/DTD/svg11.dtd">
<svg version="1.1" id="Capa_1" xmlns="http://www.w3.org/2000/svg" xmlns:xlink="http://www.w3.org/1999/xlink" x="0px" y="0px"
	 width="129.444px" height="34.793px" viewBox="0 0 129.444 34.793" enable-background="new 0 0 129.444 34.793"
	 xml:space="preserve">
<g>
	<path fill="#FFFFFF" d="M126.371,31.726H3.212V3.348h123.159V31.726z M4.026,30.911h121.533V4.162H4.026V30.911z"/>
</g>
<g>
	<path fill="#FFFFFF" d="M18.033,10.593c-0.438-0.304-1.031-0.505-1.822-0.505c-0.792,0-1.41,0.202-1.853,0.505
		c-0.437,0.305-0.721,0.708-0.921,1.115c-0.24,0.463-0.374,1.01-0.394,1.598v8.754c0.021,0.608,0.154,1.157,0.394,1.621
		c0.2,0.403,0.485,0.785,0.921,1.089c0.443,0.326,1.062,0.509,1.853,0.509c0.791,0,1.384-0.183,1.822-0.509
		c0.442-0.304,0.75-0.686,0.947-1.089c0.245-0.464,0.375-1.013,0.394-1.621v-2.039h-2.218v2.039c0,0.225-0.024,0.405-0.089,0.547
		c-0.108,0.301-0.308,0.544-0.815,0.544c-0.197,0-0.352-0.059-0.461-0.157c-0.221-0.224-0.354-0.509-0.372-0.934v-8.754
		c0.018-0.203,0.04-0.386,0.108-0.547c0.108-0.263,0.309-0.547,0.725-0.547c0.243,0,0.44,0.061,0.551,0.163
		c0.241,0.242,0.353,0.526,0.353,0.931v2.042h2.218v-2.042c-0.019-0.587-0.149-1.135-0.394-1.598
		C18.783,11.301,18.475,10.897,18.033,10.593z"/>
	<path fill="#FFFFFF" d="M24.195,22.06c0,0.225-0.022,0.405-0.09,0.547c-0.087,0.301-0.286,0.544-0.703,0.544
		c-0.199,0-0.353-0.059-0.464-0.157c-0.22-0.224-0.329-0.509-0.329-0.934V10.249h-2.375V22.06c0.019,0.608,0.156,1.157,0.396,1.621
		c0.201,0.403,0.485,0.785,0.927,1.089c0.44,0.326,1.053,0.509,1.846,0.509s1.384-0.183,1.826-0.509
		c0.438-0.304,0.747-0.686,0.944-1.089c0.247-0.464,0.376-1.013,0.399-1.621V10.249h-2.375V22.06z"/>
	<polygon fill="#FFFFFF" points="30.133,10.249 27.758,10.249 27.758,25.115 33.28,25.115 33.28,23.092 30.133,23.092 	"/>
	<polygon fill="#FFFFFF" points="31.915,12.495 34.159,12.495 34.159,25.115 36.534,25.115 36.534,12.495 38.778,12.495 
		38.778,10.249 31.915,10.249 	"/>
	<path fill="#FFFFFF" d="M43.801,22.06c0,0.225-0.024,0.405-0.09,0.547c-0.088,0.301-0.283,0.544-0.703,0.544
		c-0.198,0-0.352-0.059-0.461-0.157c-0.221-0.224-0.331-0.509-0.331-0.934V10.249h-2.377V22.06c0.023,0.608,0.156,1.157,0.399,1.621
		c0.195,0.403,0.481,0.785,0.921,1.089c0.44,0.326,1.057,0.509,1.848,0.509c0.793,0,1.385-0.183,1.826-0.509
		c0.442-0.304,0.749-0.686,0.947-1.089c0.241-0.464,0.374-1.013,0.396-1.621V10.249h-2.375V22.06z"/>
	<path fill="#FFFFFF" d="M53.905,14.535c0-2.808-1.212-4.286-4.047-4.286h-2.375v14.866h2.375v-6.27h0.639l1.232,6.27h2.375
		l-1.518-7.2C53.487,17.349,53.905,16.016,53.905,14.535z M50.98,16.5c-0.352,0.282-0.793,0.322-1.123,0.322v-4.409
		c0.329,0,0.771,0.021,1.123,0.305c0.353,0.282,0.638,0.848,0.638,1.898C51.619,15.671,51.333,16.217,50.98,16.5z"/>
	<path fill="#FFFFFF" d="M56.891,10.249l-2.44,14.866h2.31l0.44-3.035h2.287l0.44,3.035h2.309l-2.441-14.866H56.891z M57.53,19.774
		l0.683-4.692l0.062-0.384h0.135l0.067,0.384l0.683,4.692H57.53z"/>
	<rect x="66.372" y="10.259" fill="#FFFFFF" width="2.377" height="14.868"/>
	<polygon fill="#FFFFFF" points="74.828,18.693 74.697,18.693 74.498,18.007 72.19,10.259 70.077,10.259 70.077,25.127 
		72.255,25.127 72.255,16.691 72.387,16.691 72.582,17.379 74.893,25.127 77.005,25.127 77.005,10.259 74.828,10.259 	"/>
	<path fill="#FFFFFF" d="M84.032,23.87c0.108-0.222,0.22-0.423,0.286-0.646c0.132-0.423,0.198-0.806,0.198-1.152v-8.757
		c-0.021-0.586-0.155-1.134-0.396-1.597c-0.199-0.405-0.506-0.809-0.947-1.112c-0.438-0.305-1.031-0.506-1.824-0.506
		s-1.408,0.201-1.851,0.506c-0.439,0.303-0.726,0.707-0.919,1.112c-0.246,0.463-0.377,1.011-0.399,1.597v8.757
		c0.022,0.61,0.153,1.152,0.399,1.62c0.193,0.403,0.479,0.788,0.919,1.09c0.442,0.325,1.058,0.507,1.851,0.507
		c0.46,0,0.856-0.081,1.187-0.182c0.421,0.626,1.1,1.153,2.442,1.153v-1.862C84.516,24.316,84.229,24.115,84.032,23.87z
		 M82.141,22.071c0,0.223-0.023,0.407-0.089,0.546c-0.088,0.307-0.285,0.547-0.704,0.547c-0.199,0-0.352-0.061-0.463-0.162
		c-0.221-0.223-0.33-0.508-0.33-0.931v-8.757c0-0.205,0.022-0.386,0.089-0.547c0.087-0.262,0.284-0.545,0.704-0.545
		c0.198,0,0.373,0.061,0.484,0.159c0.22,0.245,0.309,0.529,0.309,0.933V22.071z"/>
	<path fill="#FFFFFF" d="M89.789,22.071c0,0.223-0.019,0.407-0.085,0.546c-0.09,0.307-0.286,0.547-0.706,0.547
		c-0.197,0-0.352-0.061-0.463-0.162c-0.219-0.223-0.329-0.508-0.329-0.931V10.259h-2.375v11.812c0.021,0.61,0.152,1.152,0.397,1.62
		c0.195,0.403,0.481,0.788,0.922,1.09c0.441,0.325,1.056,0.507,1.848,0.507c0.791,0,1.386-0.182,1.826-0.507
		c0.439-0.302,0.748-0.687,0.945-1.09c0.24-0.468,0.375-1.01,0.396-1.62V10.259h-2.377V22.071z"/>
	<rect x="93.472" y="10.259" fill="#FFFFFF" width="2.375" height="14.868"/>
	<polygon fill="#FFFFFF" points="109.523,10.259 102.727,10.259 102.66,10.259 97.295,10.259 97.295,25.127 102.727,25.127 
		102.727,22.879 99.671,22.879 99.671,18.793 101.869,18.793 101.869,16.409 99.671,16.409 99.671,12.506 102.66,12.506 
		102.727,12.506 104.904,12.506 104.904,25.127 107.281,25.127 107.281,12.506 109.523,12.506 	"/>
	<path fill="#FFFFFF" d="M114.102,10.259h-2.904l-2.439,14.868h2.309l0.438-3.034h2.289l0.439,3.034h2.309L114.102,10.259z
		 M111.834,19.784l0.682-4.69l0.066-0.385h0.133l0.066,0.385l0.682,4.69H111.834z"/>
</g>
</svg>
