<?xml version="1.0" encoding="utf-8"?>
<!-- Generator: Adobe Illustrator 16.0.0, SVG Export Plug-In . SVG Version: 6.00 Build 0)  -->
<!DOCTYPE svg PUBLIC "-//W3C//DTD SVG 1.1//EN" "http://www.w3.org/Graphics/SVG/1.1/DTD/svg11.dtd">
<svg version="1.1" id="Capa_1" xmlns="http://www.w3.org/2000/svg" xmlns:xlink="http://www.w3.org/1999/xlink" x="0px" y="0px"
	 width="439.369px" height="56.689px" viewBox="0 0 439.369 56.689" enable-background="new 0 0 439.369 56.689"
	 xml:space="preserve">
<rect x="3.5" y="20.095" fill="none" width="438.869" height="55.5"/>
<g enable-background="new    ">
	<path fill="#FFFFFF" d="M7.384,20.098h9.028v2.562h-6.005v3.947h5.039v2.562h-5.039v3.065h6.194v2.562H7.384V20.098z"/>
	<path fill="#FFFFFF" d="M23.008,30.89h3.065c0.105,1.05,0.84,1.554,1.869,1.554s1.701-0.609,1.701-1.554s-0.588-1.491-2.583-2.31
		c-2.929-1.207-3.968-2.593-3.968-4.745c0-2.415,1.764-3.989,4.598-3.989c2.625,0,4.598,1.554,4.598,4.115h-3.065
		c0-0.902-0.588-1.512-1.575-1.512c-1.008,0-1.491,0.609-1.491,1.344c0,0.882,0.609,1.396,2.667,2.278
		c2.939,1.26,3.884,2.582,3.884,4.64c0,2.594-1.848,4.336-4.808,4.336S23.176,33.241,23.008,30.89z"/>
	<path fill="#FFFFFF" d="M46.254,19.846c3.548,0,6.614,2.078,7.559,5.333h-3.233c-0.798-1.7-2.478-2.729-4.325-2.729
		c-2.604,0-4.808,1.994-4.808,4.997s2.205,4.997,4.808,4.997c1.848,0,3.527-1.029,4.325-2.729h3.233
		c-0.945,3.255-4.01,5.333-7.559,5.333c-4.346,0-7.874-3.086-7.874-7.601S41.907,19.846,46.254,19.846z"/>
	<path fill="#FFFFFF" d="M60.534,28.58v-8.482h3.023v8.672c0,2.582,1.512,3.674,3.149,3.674s3.149-1.092,3.149-3.674v-8.672h3.023
		v8.482c0,4.451-2.813,6.467-6.173,6.467S60.534,33.031,60.534,28.58z"/>
	<path fill="#FFFFFF" d="M80.653,20.098h9.028v2.562h-6.005v3.947h5.039v2.562h-5.039v3.065h6.194v2.562h-9.217V20.098z"/>
	<path fill="#FFFFFF" d="M97.011,20.098h3.023v12.136h5.9v2.562h-8.923V20.098z"/>
	<path fill="#FFFFFF" d="M121.201,32.612h-6.341l-0.84,2.184h-3.149l5.942-14.697h2.436l5.942,14.697h-3.149L121.201,32.612z
		 M115.826,30.092h4.409l-2.205-5.711L115.826,30.092z"/>
	<path fill="#FFFFFF" d="M143.546,34.795h-4.913V20.098h4.913c4.766,0,7.979,2.688,7.979,7.349
		C151.524,32.129,148.312,34.795,143.546,34.795z M143.567,22.659h-1.911v9.574h1.911c2.75,0,4.892-1.596,4.892-4.767
		C148.459,24.255,146.317,22.659,143.567,22.659z"/>
	<path fill="#FFFFFF" d="M158.246,20.098h9.028v2.562h-6.005v3.947h5.039v2.562h-5.039v3.065h6.194v2.562h-9.217V20.098z"/>
	<path fill="#FFFFFF" d="M187.855,30.512l4.01-10.414h3.149l-5.942,14.697h-2.436l-5.942-14.697h3.149L187.855,30.512z"/>
	<path fill="#FFFFFF" d="M201.527,20.098h9.028v2.562h-6.005v3.947h5.039v2.562h-5.039v3.065h6.194v2.562h-9.217V20.098z"/>
	<path fill="#FFFFFF" d="M220.909,34.795h-3.023V20.098h5.061c3.611,0,5.795,2.268,5.795,5.145c0,1.973-1.008,3.568-2.73,4.367
		c1.449,0.902,2.373,2.498,2.582,4.744l0.043,0.441h-2.939l-0.043-0.398c-0.252-2.415-1.615-3.885-3.674-3.885h-1.07V34.795z
		 M220.909,27.992h1.974c1.659,0,2.792-0.924,2.792-2.688s-1.133-2.688-2.792-2.688h-1.974V27.992z"/>
	<path fill="#FFFFFF" d="M244.322,32.612h-6.34l-0.84,2.184h-3.15l5.943-14.697h2.436l5.941,14.697h-3.15L244.322,32.612z
		 M238.947,30.092h4.41l-2.205-5.711L238.947,30.092z"/>
	<path fill="#FFFFFF" d="M254.404,20.098h2.227l6.992,9.217v-9.217h3.023v14.697h-2.227l-6.992-9.238v9.238h-3.023V20.098z"/>
	<path fill="#FFFFFF" d="M281.241,19.846c4.408,0,7.873,3.149,7.873,7.601s-3.465,7.601-7.873,7.601
		c-4.41,0-7.875-3.149-7.875-7.601S276.831,19.846,281.241,19.846z M281.241,32.444c2.666,0,4.807-2.037,4.807-4.997
		s-2.141-4.997-4.807-4.997c-2.668,0-4.809,2.037-4.809,4.997S278.573,32.444,281.241,32.444z"/>
	<path fill="#FFFFFF" d="M311.837,32.612h-6.342l-0.84,2.184h-3.148l5.941-14.697h2.436l5.941,14.697h-3.148L311.837,32.612z
		 M306.462,30.092h4.408l-2.203-5.711L306.462,30.092z"/>
	<path fill="#FFFFFF" d="M324.943,34.795h-3.023V20.098h5.061c3.611,0,5.795,2.268,5.795,5.145c0,1.973-1.008,3.568-2.73,4.367
		c1.449,0.902,2.373,2.498,2.582,4.744l0.043,0.441h-2.939l-0.043-0.398c-0.252-2.415-1.615-3.885-3.674-3.885h-1.07V34.795z
		 M324.943,27.992h1.973c1.66,0,2.793-0.924,2.793-2.688s-1.133-2.688-2.793-2.688h-1.973V27.992z"/>
	<path fill="#FFFFFF" d="M342.581,22.659h-3.926v-2.562h10.875v2.562h-3.926v12.136h-3.023V22.659z"/>
	<path fill="#FFFFFF" d="M356.253,20.098h9.027v2.562h-6.004v3.947h5.039v2.562h-5.039v3.065h6.193v2.562h-9.217V20.098z"/>
	<path fill="#FFFFFF" d="M377.525,34.795h-4.912V20.098h4.912c4.768,0,7.979,2.688,7.979,7.349
		C385.503,32.129,382.292,34.795,377.525,34.795z M377.546,22.659h-1.91v9.574h1.91c2.75,0,4.893-1.596,4.893-4.767
		C382.439,24.255,380.296,22.659,377.546,22.659z"/>
	<path fill="#FFFFFF" d="M395.355,20.098v14.697h-3.023V20.098H395.355z"/>
	<path fill="#FFFFFF" d="M403.23,20.098h9.027v2.562h-6.004v3.947h5.039v2.562h-5.039v3.065h6.193v2.562h-9.217V20.098z"/>
	<path fill="#FFFFFF" d="M425.257,22.659h-6.193v-2.562h10.057v1.932l-6.51,10.204h6.719v2.562h-10.582v-1.932L425.257,22.659z"/>
</g>
</svg>
