<?xml version="1.0" encoding="utf-8"?>
<!-- Generator: Adobe Illustrator 16.0.0, SVG Export Plug-In . SVG Version: 6.00 Build 0)  -->
<!DOCTYPE svg PUBLIC "-//W3C//DTD SVG 1.1//EN" "http://www.w3.org/Graphics/SVG/1.1/DTD/svg11.dtd">
<svg version="1.1" id="Capa_1" xmlns="http://www.w3.org/2000/svg" xmlns:xlink="http://www.w3.org/1999/xlink" x="0px" y="0px"
	 width="131px" height="86.69px" viewBox="0 0 131 86.69" enable-background="new 0 0 131 86.69" xml:space="preserve">
<g>
	<polygon fill="#FFFFFF" points="22.639,25.418 29.571,25.418 29.571,27.385 24.96,27.385 24.96,30.416 28.829,30.416 
		28.829,32.383 24.96,32.383 24.96,34.736 29.716,34.736 29.716,36.704 22.639,36.704 	"/>
	<path fill="#FFFFFF" d="M34.794,28.287c0-1.819,1.29-3.063,3.63-3.063c1.077,0,2.19,0.291,3.028,0.791l-0.708,1.837
		c-0.581-0.386-1.354-0.628-2.096-0.628c-1.016,0-1.5,0.371-1.5,0.953c0,0.627,0.419,1.006,1.952,1.707
		c1.973,0.901,2.917,1.903,2.917,3.595c0,2.08-1.418,3.419-4.078,3.419c-1.178,0-2.436-0.338-3.386-0.919l0.708-1.871
		c0.726,0.5,1.709,0.791,2.58,0.791c1.129,0,1.822-0.453,1.822-1.234c0-0.83-0.589-1.297-1.975-1.901
		C35.446,30.785,34.794,29.746,34.794,28.287"/>
	<path fill="#FFFFFF" d="M52.223,25.223c1.129,0,2.146,0.179,3.112,0.613l-0.71,1.838c-0.612-0.305-1.466-0.451-2.354-0.451
		c-2.047,0-3.627,1.58-3.627,3.838c0,2.498,1.853,3.839,3.757,3.839c0.885,0,1.644-0.147,2.305-0.485l0.709,1.855
		c-0.902,0.469-1.966,0.629-3.062,0.629c-3.242,0-6.064-2.227-6.064-5.838C46.289,27.547,49.047,25.223,52.223,25.223"/>
	<path fill="#FFFFFF" d="M60.816,31.93v-6.512h2.321v6.658c0,1.984,1.16,2.823,2.418,2.823c1.259,0,2.419-0.839,2.419-2.823v-6.658
		h2.321v6.512c0,3.42-2.16,4.969-4.74,4.969S60.816,35.35,60.816,31.93"/>
	<polygon fill="#FFFFFF" points="76.264,25.418 83.195,25.418 83.195,27.385 78.584,27.385 78.584,30.416 82.453,30.416 
		82.453,32.383 78.584,32.383 78.584,34.736 83.34,34.736 83.34,36.704 76.264,36.704 	"/>
	<polygon fill="#FFFFFF" points="88.822,25.418 91.144,25.418 91.144,34.736 95.674,34.736 95.674,36.704 88.822,36.704 	"/>
	<path fill="#FFFFFF" d="M107.396,35.026h-4.87l-0.646,1.678h-2.418l4.563-11.286h1.871l4.562,11.286h-2.419L107.396,35.026z
		 M103.268,33.092h3.386l-1.693-4.385L103.268,33.092z"/>
	<path fill="#FFFFFF" d="M24.365,59.597h-4.871l-0.646,1.678h-2.418l4.563-11.287h1.871l4.562,11.287h-2.419L24.365,59.597z
		 M20.235,57.663h3.387l-1.693-4.387L20.235,57.663z"/>
	<path fill="#FFFFFF" d="M34.425,61.274h-2.321V49.987h3.886c2.773,0,4.45,1.742,4.45,3.951c0,1.516-0.775,2.74-2.099,3.354
		c1.113,0.693,1.823,1.918,1.984,3.643l0.034,0.34h-2.258l-0.033-0.307c-0.194-1.854-1.242-2.982-2.823-2.982h-0.82V61.274z
		 M34.425,56.052h1.516c1.273,0,2.143-0.711,2.143-2.064s-0.869-2.064-2.143-2.064h-1.516V56.052z"/>
	<polygon fill="#FFFFFF" points="47.966,51.954 44.952,51.954 44.952,49.987 53.305,49.987 53.305,51.954 50.288,51.954 
		50.288,61.274 47.966,61.274 	"/>
	<polygon fill="#FFFFFF" points="58.462,49.987 65.396,49.987 65.396,51.954 60.784,51.954 60.784,54.985 64.653,54.985 
		64.653,56.952 60.784,56.952 60.784,59.308 65.54,59.308 65.54,61.274 58.462,61.274 	"/>
	<path fill="#FFFFFF" d="M74.794,61.274h-3.771V49.987h3.771c3.661,0,6.128,2.064,6.128,5.645
		C80.922,59.226,78.455,61.274,74.794,61.274 M74.811,51.954h-1.467v7.354h1.467c2.111,0,3.758-1.227,3.758-3.66
		C78.568,53.181,76.922,51.954,74.811,51.954"/>
	<rect x="86.162" y="49.987" fill="#FFFFFF" width="2.321" height="11.287"/>
	<polygon fill="#FFFFFF" points="94.528,49.987 101.462,49.987 101.462,51.954 96.851,51.954 96.851,54.985 100.72,54.985 
		100.72,56.952 96.851,56.952 96.851,59.308 101.606,59.308 101.606,61.274 94.528,61.274 	"/>
	<polygon fill="#FFFFFF" points="111.441,51.954 106.685,51.954 106.685,49.987 114.408,49.987 114.408,51.472 109.411,59.308 
		114.57,59.308 114.57,61.274 106.443,61.274 106.443,59.79 	"/>
	
		<polygon fill="none" stroke="#FFFFFF" stroke-width="2.48" stroke-linecap="round" stroke-linejoin="round" stroke-miterlimit="10" points="
		6.125,67.915 28.22,67.915 39.268,75.515 50.313,67.915 124.875,67.915 124.875,43.347 6.125,43.347 	"/>
	
		<polygon fill="none" stroke="#FFFFFF" stroke-width="2.48" stroke-linecap="round" stroke-linejoin="round" stroke-miterlimit="10" points="
		6.125,18.775 6.125,43.347 124.875,43.347 124.875,18.775 102.781,18.775 91.733,11.176 80.688,18.775 	"/>
</g>
</svg>
