<?xml version="1.0" encoding="utf-8"?>
<!-- Generator: Adobe Illustrator 16.0.0, SVG Export Plug-In . SVG Version: 6.00 Build 0)  -->
<!DOCTYPE svg PUBLIC "-//W3C//DTD SVG 1.1//EN" "http://www.w3.org/Graphics/SVG/1.1/DTD/svg11.dtd">
<svg version="1.1" id="Capa_1" xmlns="http://www.w3.org/2000/svg" xmlns:xlink="http://www.w3.org/1999/xlink" x="0px" y="0px"
	 width="690px" height="690px" viewBox="0 0 690 690" enable-background="new 0 0 690 690" xml:space="preserve">
<rect x="-56" y="-55" display="none" fill="#53B0E3" width="2325" height="800"/>
<g>
	<path fill="#96E2D5" d="M589.229,642.395"/>
	<rect x="585" y="393" fill="#F0976B" width="14" height="246"/>
	<path fill="#F0976B" d="M589,128.875c18.793,0,34,15.235,34,34.026v216.764c0,18.79-15.207,34.026-34,34.026s-34-15.236-34-34.026
		V162.901C555,144.11,570.207,128.875,589,128.875z"/>
	<polygon fill="#FA5847" points="555.784,215.1 561.106,215.1 558.443,201.664 555.784,188.168 553.125,201.633 550.467,215.1 	"/>
	<rect x="555" y="234" fill="#FFFFFF" width="68" height="155"/>
	<rect x="555" y="266" fill="#1B2335" width="6" height="199"/>
	<rect x="555" y="329" fill="#1B2335" width="68" height="137"/>
	<rect x="547" y="639" fill="#1B2335" width="52" height="8"/>
	<rect x="547" y="631" fill="#F0976B" width="52" height="8"/>
	<rect x="547" y="631" fill="#1B2335" width="16" height="8"/>
	<rect x="555" y="234" fill="#1B2335" width="3" height="8"/>
	<polyline fill="none" stroke="#F0976B" stroke-width="17" stroke-miterlimit="10" points="515,359.5 591.5,359.5 591.5,282 	"/>
	<rect x="577" y="242" fill="#FFFFFF" width="30" height="43"/>
	<polygon fill="#FDA0E5" points="644,172.079 644,182.933 633.311,177.506 622.646,172.079 633.322,166.656 644,161.233 	"/>
	<path fill="#FDA0E5" d="M589.25,128.875c-11.234,0-21.116,5.447-27.189,13.841c6.48,18.396,24.114,31.583,44.727,31.583
		c5.654,0,11.213-0.995,16.213-2.814v-8.584C623,144.11,608.043,128.875,589.25,128.875z"/>
</g>
<g>
	<g>
		<circle fill="#3268E6" cx="326.5" cy="329.3" r="64.8"/>
		<circle fill="#3268E6" cx="326.566" cy="264.167" r="8.166"/>
		<rect x="256" y="318" fill="#3268E6" width="141" height="11"/>
	</g>
	<rect x="66" y="329" fill="#FA5847" width="389" height="216"/>
	<rect x="55" y="529" fill="#3EE9AF" width="411" height="16"/>
	<rect x="55" y="329" fill="#3EE9AF" width="411" height="16"/>
	<g>
		<path fill="#FDA0E5" d="M416,369v137H106V369H416 M428,357H94v161h334V357L428,357z"/>
	</g>
	<rect x="444" y="157" fill="#FFEE4C" width="11" height="172"/>
	<rect x="66" y="157" fill="#FFEE4C" width="12" height="172"/>
	<g>
		<circle fill="#FFFFFF" cx="390.456" cy="156.5" r="21.6"/>
		<circle fill="#FFFFFF" cx="304.072" cy="156.5" r="21.6"/>
		<circle fill="#FFFFFF" cx="217.683" cy="156.5" r="21.6"/>
		<circle fill="#FFFFFF" cx="131.294" cy="156.5" r="21.6"/>
		<rect x="110" y="70" fill="#FFFFFF" width="43" height="87"/>
		<rect x="196" y="70" fill="#FFFFFF" width="43" height="87"/>
		<rect x="282" y="70" fill="#FFFFFF" width="44" height="87"/>
		<rect x="369" y="70" fill="#FFFFFF" width="43" height="87"/>
	</g>
	<g>
		<circle fill="#FA5847" cx="433.656" cy="156.5" r="21.6"/>
		<circle fill="#FA5847" cx="347.266" cy="156.5" r="21.6"/>
		<circle fill="#FA5847" cx="260.878" cy="156.5" r="21.6"/>
		<circle fill="#FA5847" cx="174.489" cy="156.5" r="21.6"/>
		<circle fill="#FA5847" cx="88.1" cy="156.5" r="21.6"/>
		<rect x="66" y="70" fill="#FA5847" width="44" height="87"/>
		<rect x="153" y="70" fill="#FA5847" width="43" height="87"/>
		<rect x="239" y="70" fill="#FA5847" width="43" height="87"/>
		<rect x="326" y="70" fill="#FA5847" width="43" height="87"/>
		<rect x="412" y="70" fill="#FA5847" width="43" height="87"/>
	</g>
	<g>
		<path fill="none" stroke="#FFEE4C" stroke-width="27" stroke-miterlimit="10" d="M287.521,560.589
			c0-47.619-38.603-86.223-86.222-86.223c-47.619,0-86.222,38.604-86.222,86.223"/>
		<g>
			<g>
				<line fill="none" stroke="#3268E6" stroke-width="2" stroke-miterlimit="10" x1="202" y1="476" x2="202" y2="647"/>
			</g>
			<g>
				
					<line fill="none" stroke="#3268E6" stroke-width="2" stroke-miterlimit="10" x1="227.885" y1="479.974" x2="174.981" y2="642.795"/>
			</g>
			<g>
				
					<line fill="none" stroke="#3268E6" stroke-width="2" stroke-miterlimit="10" x1="251.468" y1="492.13" x2="150.838" y2="630.635"/>
			</g>
			<g>
				
					<line fill="none" stroke="#3268E6" stroke-width="2" stroke-miterlimit="10" x1="270.14" y1="510.979" x2="131.635" y2="611.607"/>
			</g>
			<g>
				
					<line fill="none" stroke="#3268E6" stroke-width="2" stroke-miterlimit="10" x1="282.073" y1="534.675" x2="119.251" y2="587.578"/>
			</g>
			<g>
				
					<line fill="none" stroke="#3268E6" stroke-width="2" stroke-miterlimit="10" x1="286.101" y1="560.9" x2="114.899" y2="560.898"/>
			</g>
			<g>
				
					<line fill="none" stroke="#3268E6" stroke-width="2" stroke-miterlimit="10" x1="281.826" y1="587.086" x2="119.005" y2="534.18"/>
			</g>
			<g>
				
					<line fill="none" stroke="#3268E6" stroke-width="2" stroke-miterlimit="10" x1="269.67" y1="610.669" x2="131.167" y2="510.037"/>
			</g>
			<g>
				
					<line fill="none" stroke="#3268E6" stroke-width="2" stroke-miterlimit="10" x1="250.82" y1="629.341" x2="150.193" y2="490.834"/>
			</g>
			<g>
				
					<line fill="none" stroke="#3268E6" stroke-width="2" stroke-miterlimit="10" x1="227.123" y1="641.273" x2="174.222" y2="478.451"/>
			</g>
		</g>
		<g>
			<path fill="#FFFFFF" d="M201.3,492.366c37.618,0,68.222,30.604,68.222,68.223c0,37.617-30.604,68.222-68.222,68.222
				s-68.222-30.604-68.222-68.222C133.078,522.971,163.682,492.366,201.3,492.366 M201.3,474.366
				c-47.619,0-86.222,38.604-86.222,86.223s38.603,86.222,86.222,86.222c47.619,0,86.222-38.603,86.222-86.222
				S248.919,474.366,201.3,474.366L201.3,474.366z"/>
		</g>
		<g>
			<path fill="#3268E6" d="M201.3,478.366c45.337,0,82.222,36.885,82.222,82.223c0,45.337-36.884,82.222-82.222,82.222
				s-82.222-36.885-82.222-82.222C119.078,515.251,155.962,478.366,201.3,478.366 M201.3,474.366
				c-47.619,0-86.222,38.604-86.222,86.223s38.603,86.222,86.222,86.222c47.619,0,86.222-38.603,86.222-86.222
				S248.919,474.366,201.3,474.366L201.3,474.366z"/>
		</g>
		<circle fill="#3268E6" cx="201.5" cy="561.1" r="11.4"/>
	</g>
	<g>
		<rect x="455" y="351" fill="#FFEE4C" width="59" height="16"/>
		<rect x="455" y="367" fill="#FFEE4C" width="11" height="27"/>
	</g>
	<rect x="439" y="345" fill="#3EE9AF" width="16" height="184"/>
	<rect x="66" y="345" fill="#3EE9AF" width="16" height="184"/>
</g>
</svg>
