<?xml version="1.0" encoding="utf-8"?>
<!-- Generator: Adobe Illustrator 16.0.0, SVG Export Plug-In . SVG Version: 6.00 Build 0)  -->
<!DOCTYPE svg PUBLIC "-//W3C//DTD SVG 1.1//EN" "http://www.w3.org/Graphics/SVG/1.1/DTD/svg11.dtd">
<svg version="1.1" id="Capa_1" xmlns="http://www.w3.org/2000/svg" xmlns:xlink="http://www.w3.org/1999/xlink" x="0px" y="0px"
	 width="690px" height="690px" viewBox="0 0 690 690" enable-background="new 0 0 690 690" xml:space="preserve">
<rect x="-811" y="-55" display="none" fill="#53B0E3" width="2325" height="800"/>
<g>
	<path fill="#F0976B" d="M351,79.837c-59.652,0-108,48.359-108,108.016v486.065c0,59.653,48.348,108.017,108,108.017
		s108-48.363,108-108.017V187.853C459,128.196,410.652,79.837,351,79.837z"/>
	<polygon fill="#FA5847" points="351.242,296.48 364.537,296.48 357.886,262.914 351.242,229.196 344.599,262.835 337.958,296.48 	
		"/>
	<rect x="243" y="344" fill="#FFFFFF" width="216" height="386"/>
	<rect x="243" y="580" fill="#1B2335" width="216" height="343"/>
	<rect x="279" y="424" fill="#1B2335" width="146" height="497"/>
	<g>
		<rect x="473" y="432" fill="#F0976B" width="34" height="404"/>
	</g>
	<rect x="473" y="344" fill="#FFFFFF" width="34" height="108"/>
	<rect x="195" y="344" fill="#FFFFFF" width="34" height="108"/>
	<g>
		<rect x="301" y="344" fill="#1B2335" width="48" height="20"/>
		<rect x="355" y="344" fill="#1B2335" width="48" height="20"/>
	</g>
	<rect x="195" y="452" fill="#F0976B" width="34" height="52"/>
	<circle fill="#FDA0E5" cx="203.8" cy="507.337" r="20.486"/>
	<circle fill="#FA5847" cx="217.791" cy="503.34" r="20.486"/>
	<polygon fill="#FFEE4C" points="209.661,514 184.272,514 196.967,575.754 209.661,637.841 222.355,575.92 235.05,514 	"/>
	<rect x="189" y="541" fill="#F0976B" width="12" height="35"/>
	<rect x="209" y="548" fill="#F0976B" width="20" height="14"/>
	<path fill="#F0976B" d="M350.405,145.119c30.426,0,57.878-12.713,77.359-33.118c-13.812-14.714-31.738-25.507-51.957-30.532
		c-6.129-0.449-12.115-1.399-17.912-2.839c-2.605-0.188-5.225-0.318-7.883-0.318c-30.46,0-57.916,12.791-77.35,33.27
		C292.173,132.223,319.775,145.119,350.405,145.119z"/>
	<path fill="#1B2335" d="M383.731,81.794c-2.666,0-5.305-0.13-7.924-0.324c-5.797-1.439-11.781-2.39-17.912-2.839
		c-2.605-0.188-5.225-0.318-7.883-0.318c-30.46,0-57.916,12.791-77.35,33.27c19.51,20.64,47.112,33.536,77.742,33.536
		c30.426,0,57.878-12.713,77.359-33.118c15.026-15.735,25.316-36.045,28.564-58.636C437.25,71.006,411.755,81.794,383.731,81.794z"
		/>
	<g>
		<path fill="#1B2335" d="M286.595,301.716c0,0,43.08,25.219,61.103,8.729c3.552-3.248,3.552-6.997,3.552-6.997
			s0.083-3.544-3.797-5.419c-4.419-2.136-12.057-1.816-21.081,7.248c-3.087,3.098-7.385,5.762-17.125,3.502
			C303.467,307.439,286.595,301.716,286.595,301.716z"/>
		<path fill="#1B2335" d="M415.901,301.716c0,0-43.08,25.219-61.103,8.729c-3.553-3.248-3.553-6.997-3.553-6.997
			s-0.082-3.544,3.798-5.419c4.419-2.136,12.057-1.816,21.08,7.248c3.088,3.098,7.385,5.762,17.129,3.502
			C399.034,307.439,415.901,301.716,415.901,301.716z"/>
	</g>
</g>
</svg>
