<?xml version="1.0" encoding="utf-8"?>
<!-- Generator: Adobe Illustrator 16.0.0, SVG Export Plug-In . SVG Version: 6.00 Build 0)  -->
<!DOCTYPE svg PUBLIC "-//W3C//DTD SVG 1.1//EN" "http://www.w3.org/Graphics/SVG/1.1/DTD/svg11.dtd">
<svg version="1.1" id="Capa_1" xmlns="http://www.w3.org/2000/svg" xmlns:xlink="http://www.w3.org/1999/xlink" x="0px" y="0px"
	 width="690px" height="568.471px" viewBox="0 0 690 568.471" enable-background="new 0 0 690 568.471" xml:space="preserve">
<rect x="-3103" y="-142.603" display="none" fill="#53B0E3" width="3135" height="800"/>
<g>
	<polygon fill="#FFFFFF" points="367,75.879 367,110.002 385,108.206 385,74.083 	"/>
	<rect x="553" y="317.397" fill="#F0976B" width="16" height="238"/>
	<rect x="552" y="547.397" fill="#FFFFFF" width="19" height="8"/>
	<rect x="552" y="532.397" fill="#F9F9F9" width="19" height="15"/>
	<g>
		<path fill="#A05845" d="M665.044,171.685c-13.333-23.232,9.002-29.839,7.523-51.263c-1.793-20.78-25.759-17.359-38.33-27.481
			c-7.604-6.395-14.167-23.01-9.594-32.552l-43.305-21.152c-15.769,8.989-24.313,30.588-29.715,46.792
			c-8.719,25.999-8.54,45.193,11.805,65.482c5.173,5.712,14.174,10.107,16.489,18.405c2.318,8.298-2.421,14.741,1.807,22.381
			c6.52,12.738,27.658,15.101,17.909,33.428c-4.097,6.758-11.751,9.388-11.034,17.702c0.702,6.712,8.761,13.037,14.545,15.863
			c14.456,6.265,33.907-0.956,39.529-15.726c2.184-6.1,0.211-11.841,5.922-17.013c5.396-4.53,12.768-3.318,18.478-8.49
			C681.023,204.172,672.848,185.051,665.044,171.685z"/>
	</g>
	<path fill="#F0976B" d="M573.5,16.482c-26.801,0-48.5,21.727-48.5,48.53v218.386c0,26.803,21.699,48.531,48.5,48.531
		c26.803,0,48.5-21.729,48.5-48.531V65.012C622,38.209,600.303,16.482,573.5,16.482z"/>
	<polygon fill="#FA5847" points="548.638,113.818 554.611,113.818 551.623,98.737 548.638,83.588 545.652,98.702 542.669,113.818 	
		"/>
	<rect x="577" y="317.397" fill="#F0976B" width="15" height="238"/>
	<polygon fill="#FFFFFF" points="625.246,235.397 521.381,235.397 524.972,135.397 621.952,135.397 	"/>
	<g>
		<rect x="628" y="135.397" fill="#F0976B" width="16" height="221"/>
		<rect x="619" y="338.397" fill="#F0976B" width="9" height="6"/>
	</g>
	<path fill="#3268E6" d="M525,272.397v11.001c0,26.803,21.699,48.531,48.5,48.531c26.803,0,48.5-21.729,48.5-48.531v-11.001H525z"/>
	<rect x="525" y="247.397" fill="#3268E6" width="97" height="33"/>
	<rect x="555" y="535.397" fill="#FFFFFF" width="12" height="3"/>
	<rect x="555" y="541.397" fill="#FFFFFF" width="12" height="2"/>
	<rect x="576" y="547.397" fill="#FFFFFF" width="18" height="8"/>
	<rect x="576" y="532.397" fill="#F9F9F9" width="18" height="15"/>
	<rect x="579" y="535.397" fill="#FFFFFF" width="12" height="3"/>
	<rect x="579" y="541.397" fill="#FFFFFF" width="12" height="2"/>
	<circle fill="#A05845" cx="636.656" cy="55.787" r="15.219"/>
	<g>
		<path fill="#A05845" d="M573.462,16.482c-10.571,0-20.34,3.391-28.304,9.129c0.003,0.219,0.018,0.435,0.018,0.655
			c0,0.946-0.025,1.885-0.072,2.82c4.174,22.537,23.92,39.609,47.665,39.609c10.796,0,20.767-3.533,28.825-9.5
			C618.723,35.136,598.293,16.482,573.462,16.482z"/>
		<path fill="#A05845" d="M545.117,29.086c-0.189-1.023-0.339-2.056-0.464-3.1C532.724,34.826,525,49.013,525,65.012v3.626
			C537,59.189,544.305,45.046,545.117,29.086z"/>
		<path fill="#A05845" d="M545.104,29.086c0.047-0.935,0.072-1.874,0.072-2.82c0-0.22-0.015-0.436-0.018-0.655
			c-0.174,0.126-0.353,0.248-0.525,0.375C544.757,27.03,544.914,28.063,545.104,29.086z"/>
	</g>
	<path fill="none" stroke="#F0976B" stroke-width="18" stroke-miterlimit="10" d="M515.991,142.629
		c0,0-144.573,94.288-144.573-26.042"/>
	<rect x="364" y="86.397" fill="#F0976B" width="3" height="28"/>
	<rect x="364" y="101.397" fill="#F0976B" width="16" height="17"/>
	<polygon fill="#F0976B" points="385,90.247 367,92.042 367,98.397 385,98.397 	"/>
	<polygon fill="#F0976B" points="367,104.614 385,102.818 385,95.397 367,95.397 	"/>
	<line fill="none" stroke="#008B4C" stroke-width="2" stroke-miterlimit="10" x1="363" y1="113.397" x2="381" y2="113.397"/>
	<line fill="none" stroke="#3268E6" stroke-miterlimit="10" x1="363" y1="115.897" x2="381" y2="115.897"/>
	<line fill="none" stroke="#FFEE4C" stroke-width="2" stroke-miterlimit="10" x1="363" y1="118.397" x2="381" y2="118.397"/>
	<path fill="#A05845" d="M622.762,53.849c-0.46,1.303-0.718,2.643-0.792,4.008l0.953-3.335
		C622.879,54.302,622.828,54.079,622.762,53.849z"/>
	<path fill="#A05845" d="M621.952,57.919c0.007-0.004,0.01-0.009,0.017-0.013c0-0.017,0-0.033,0.001-0.049L621.952,57.919z"/>
	<path fill="#A05845" d="M623.748,51.633c-0.406,0.723-0.721,1.465-0.986,2.216c0.066,0.23,0.117,0.453,0.161,0.672L623.748,51.633z
		"/>
	<path fill="#A05845" d="M622.953,54.521L622,57.857c0,0.016,0,0.033,0,0.049C623,57.216,623.25,56.003,622.953,54.521z"/>
	<polygon fill="#3268E6" points="569,331.801 524.536,287.514 548.278,512.397 569,512.397 	"/>
	<polygon fill="#3268E6" points="621.799,287.514 577,331.801 577,512.397 598.711,512.397 	"/>
</g>
<g>
	<path fill="#F0976B" d="M117.5,198.78c-22.607,0-40.5,18.327-40.5,40.936v123.681h-0.396c2.564,19,19.725,35.708,40.56,35.708
		c20.834,0,37.993-16.708,40.557-35.708H158V239.716C158,217.106,140.105,198.78,117.5,198.78z"/>
	<polygon fill="#FA5847" points="117.432,275.564 122.471,275.564 119.951,262.842 117.432,250.064 114.914,262.813 
		112.398,275.564 	"/>
	<rect x="122" y="432.397" fill="#F0976B" width="13" height="117"/>
	<rect x="122" y="549.397" fill="#3268E6" width="13" height="5"/>
	<rect x="98" y="432.397" fill="#F0976B" width="13" height="117"/>
	<rect x="98" y="549.397" fill="#3268E6" width="13" height="5"/>
	<rect x="77" y="295.397" fill="#3EE9AF" width="81" height="63"/>
	<rect x="77" y="357.397" fill="#FFEE4C" width="81" height="76"/>
	<g>
		<rect x="163" y="295.397" fill="#F0976B" width="12" height="133"/>
		<rect x="155" y="411.397" fill="#F0976B" width="8" height="6"/>
	</g>
	<rect x="163" y="295.397" fill="#3EE9AF" width="12" height="30"/>
	<g>
		<rect x="58" y="295.397" fill="#F0976B" width="12" height="133"/>
		<rect x="70" y="411.397" fill="#F0976B" width="8" height="6"/>
	</g>
	<rect x="58" y="295.397" fill="#3EE9AF" width="12" height="30"/>
	<path fill="#3268E6" d="M117.164,193.243c-22.729,0-41.155,17.154-41.155,41.154h51.481l2.609-8.119l2.607-7.901l2.607,8.009
		l2.605,8.011h20.398C158.318,210.397,139.893,193.243,117.164,193.243z"/>
	<circle fill="#3268E6" cx="147.46" cy="192.672" r="10.289"/>
	<path fill="#A05845" d="M303,401.506L303,401.506v-122.78c0-22.609-18.395-40.936-41-40.936c-22.607,0-41,18.327-41,40.936v123.057
		l0,0"/>
	<polygon fill="#FA5847" points="262.354,319.893 267.392,319.893 264.871,307.171 262.354,294.394 259.836,307.143 
		257.318,319.893 	"/>
	<rect x="266" y="549.397" fill="#3268E6" width="13" height="5"/>
	<path fill="#FA5847" d="M302.643,402.397h-81.288c1.728,13,10.646,24.167,21.646,30.221v116.779h13V436.778
		c2,0.285,3.643,0.437,5.672,0.437c1.565,0,2.328-0.098,4.328-0.27v112.452h13v-116.11C292,427.434,300.849,416.397,302.643,402.397
		z"/>
	<rect x="243" y="549.397" fill="#3268E6" width="13" height="5"/>
	<g>
		<rect x="203" y="340.397" fill="#A05845" width="13" height="133"/>
		<rect x="216" y="455.397" fill="#A05845" width="8" height="6"/>
	</g>
	<rect x="221" y="340.397" fill="#FFEE4C" width="82" height="63"/>
	<rect x="203" y="340.397" fill="#FFEE4C" width="13" height="30"/>
	<polyline fill="#A05845" points="221,278.397 221,401.506 221,401.506 	"/>
	<g>
		<path fill="#1B2335" d="M298.943,276.739c-0.021-0.398-0.048-0.797-0.082-1.192l7.948-0.688c0.042,0.485,0.076,0.972,0.103,1.461
			L298.943,276.739z"/>
		<path fill="#1B2335" d="M225.537,273.512l-7.9-1.113c0.133-0.944,0.3-1.899,0.493-2.842l7.814,1.615
			C225.783,271.949,225.646,272.735,225.537,273.512z M298.315,271.621c-0.15-0.778-0.329-1.556-0.526-2.312l7.717-2.026
			c0.241,0.921,0.457,1.869,0.641,2.817L298.315,271.621z M226.952,267.35l-7.595-2.444c0.293-0.909,0.62-1.823,0.975-2.718
			l7.418,2.937C227.461,265.858,227.192,266.607,226.952,267.35z M296.58,265.542c-0.28-0.737-0.588-1.473-0.917-2.189l7.255-3.321
			c0.399,0.873,0.775,1.771,1.118,2.669L296.58,265.542z M229.4,261.533l-7.061-3.715c0.444-0.849,0.924-1.692,1.425-2.509
			l6.806,4.161C230.16,260.141,229.768,260.834,229.4,261.533z M293.826,259.849c-0.402-0.677-0.833-1.351-1.28-2.003l6.583-4.508
			c0.542,0.791,1.065,1.61,1.553,2.432L293.826,259.849z M232.81,256.211l-6.325-4.865c0.585-0.759,1.2-1.509,1.832-2.229
			l6.001,5.257C233.798,254.968,233.291,255.585,232.81,256.211z M290.14,254.708c-0.513-0.599-1.053-1.189-1.604-1.757l5.723-5.561
			c0.667,0.688,1.321,1.404,1.942,2.13L290.14,254.708z M237.081,251.54l-5.411-5.863c0.705-0.649,1.439-1.285,2.186-1.89
			l5.021,6.201C238.264,250.484,237.659,251.006,237.081,251.54z M285.631,250.266c-0.603-0.5-1.232-0.991-1.877-1.459l4.697-6.45
			c0.779,0.567,1.545,1.162,2.275,1.769L285.631,250.266z M242.08,247.665l-4.332-6.701c0.805-0.52,1.638-1.021,2.476-1.489
			l3.891,6.965C243.427,246.825,242.741,247.237,242.08,247.665z M280.438,246.658c-0.681-0.391-1.386-0.766-2.092-1.114
			l3.521-7.159c0.859,0.424,1.719,0.88,2.547,1.356L280.438,246.658z M247.665,244.7l-3.12-7.343
			c0.887-0.376,1.794-0.728,2.697-1.044l2.636,7.531C249.137,244.103,248.393,244.391,247.665,244.7z M274.712,243.994
			c-0.739-0.27-1.497-0.518-2.252-0.738l2.236-7.659c0.921,0.269,1.847,0.572,2.748,0.9L274.712,243.994z M253.674,242.74
			l-1.807-7.771c0.936-0.217,1.888-0.406,2.831-0.563l1.306,7.871C255.227,242.405,254.443,242.561,253.674,242.74z M268.61,242.354
			c-0.777-0.139-1.565-0.253-2.346-0.341l0.89-7.929c0.951,0.107,1.912,0.247,2.857,0.415L268.61,242.354z M259.935,241.65
			l-0.456-8.072c0.863-0.049,1.738-0.181,2.604-0.181h0.272l-0.042,8h-0.23C261.369,241.397,260.646,241.609,259.935,241.65z"/>
		<path fill="#1B2335" d="M225.174,278.397h-7.979c0,0,0.007-0.807,0.022-1.291l7.976,0.168
			C225.179,277.674,225.174,278.397,225.174,278.397z"/>
	</g>
	<path fill="#A05845" d="M303,401.506L303,401.506v-122.78c0-0.736-0.02-1.47-0.058-2.196"/>
	<g>
		<path fill="none" stroke="#A05845" stroke-width="15" stroke-miterlimit="10" d="M313.582,343.089"/>
		
			<rect x="345.836" y="239.411" transform="matrix(0.9446 -0.3283 0.3283 0.9446 -60.2812 128.0144)" fill="#A05845" width="6.204" height="6.204"/>
		<path fill="#FFEE4C" d="M308.996,352.756l-1.998-13.146c0.143-0.022,14.408-2.334,27.744-11.914l7.758,10.799
			C326.462,350.019,309.703,352.65,308.996,352.756z"/>
		<path fill="#A05844" d="M342.5,338.496l-7.758-10.799c11.182-8.033,18.486-18.774,21.712-31.925
			c4.408-17.97,1.245-40.437-9.4-66.776l12.328-4.983c11.714,28.981,15.074,54.19,9.987,74.927
			C365.367,315.253,356.328,328.562,342.5,338.496z"/>
	</g>
</g>
</svg>
