<?xml version="1.0" encoding="utf-8"?>
<!-- Generator: Adobe Illustrator 16.0.0, SVG Export Plug-In . SVG Version: 6.00 Build 0)  -->
<!DOCTYPE svg PUBLIC "-//W3C//DTD SVG 1.1//EN" "http://www.w3.org/Graphics/SVG/1.1/DTD/svg11.dtd">
<svg version="1.1" id="Capa_1" xmlns="http://www.w3.org/2000/svg" xmlns:xlink="http://www.w3.org/1999/xlink" x="0px" y="0px"
	 width="690px" height="690px" viewBox="0 0 690 690" enable-background="new 0 0 690 690" xml:space="preserve">
<polygon fill="#FFFFFF" points="337,140 337,178 357,176 357,138 "/>
<rect x="545" y="408" fill="#F0976B" width="17" height="266"/>
<rect x="543" y="665" fill="#FFFFFF" width="21" height="9"/>
<rect x="543" y="648" fill="#F9F9F9" width="21" height="17"/>
<path fill="#F0976B" d="M75,301.726c-25.501,0-46,20.673-46,46.177V487h-0.106c2.893,22,22.249,40.279,45.751,40.279
	S117.503,509,120.396,487H121V347.902C121,322.398,100.501,301.726,75,301.726z"/>
<polygon fill="#FA5847" points="74.948,388.341 80.632,388.341 77.789,373.99 74.948,359.576 72.107,373.957 69.27,388.341 "/>
<rect x="80" y="537" fill="#F0976B" width="15" height="132"/>
<rect x="80" y="669" fill="#3268E6" width="15" height="6"/>
<rect x="53" y="537" fill="#F0976B" width="15" height="132"/>
<rect x="53" y="669" fill="#3268E6" width="15" height="6"/>
<rect x="29" y="411" fill="#3EE9AF" width="92" height="71"/>
<rect x="29" y="481" fill="#FFEE4C" width="92" height="85"/>
<g>
	<rect x="126" y="411" fill="#F0976B" width="14" height="150"/>
	<rect x="117" y="541" fill="#F0976B" width="9" height="7"/>
</g>
<rect x="126" y="411" fill="#3EE9AF" width="14" height="34"/>
<g>
	<rect x="8" y="411" fill="#F0976B" width="14" height="150"/>
	<rect x="22" y="541" fill="#F0976B" width="9" height="7"/>
</g>
<rect x="8" y="411" fill="#3EE9AF" width="14" height="34"/>
<path fill="#3268E6" d="M74.645,295.577C49.006,295.577,28.221,315,28.221,342h58.072l2.944-9.207l2.94-8.937l2.941,9.07L98.059,342
	h23.01C121.068,315,100.283,295.577,74.645,295.577z"/>
<circle fill="#3268E6" cx="108.821" cy="294.836" r="11.606"/>
<path fill="#A05845" d="M305,502.407L305,502.407v-138.5c0-25.504-20.499-46.177-46-46.177c-25.502,0-46,20.673-46,46.177v138.812
	l0,0"/>
<polygon fill="#FA5847" points="259.502,410.345 265.186,410.345 262.343,395.994 259.502,381.581 256.662,395.962 253.823,410.345 
	"/>
<rect x="264" y="669" fill="#3268E6" width="14" height="6"/>
<path fill="#FA5847" d="M304.949,503h-91.695C215.203,518,225,530.673,238,537.502V669h14V542.194c3,0.321,4.469,0.492,6.758,0.492
	c1.767,0,3.242-0.11,5.242-0.304V669h14V538.256C293,531.654,302.926,519,304.949,503z"/>
<rect x="238" y="669" fill="#3268E6" width="14" height="6"/>
<g>
	<rect x="310" y="433" fill="#A05845" width="15" height="150"/>
	<rect x="303" y="563" fill="#A05845" width="7" height="7"/>
</g>
<g>
	<rect x="193" y="433" fill="#A05845" width="14" height="150"/>
	<rect x="207" y="563" fill="#A05845" width="9" height="7"/>
</g>
<g>
	<path fill="#A05845" d="M670.988,250.692c-14.849-25.873,10.024-33.231,8.377-57.088c-1.996-23.142-28.685-19.332-42.685-30.604
		c-8.468-7.123-15.776-25.625-10.684-36.251l-48.225-23.555c-17.56,10.01-27.076,34.063-33.092,52.109
		c-9.709,28.952-9.51,50.328,13.146,72.921c5.761,6.361,15.784,11.256,18.362,20.496c2.582,9.241-2.696,16.416,2.013,24.923
		c7.26,14.186,30.8,16.817,19.943,37.228c-4.562,7.525-13.086,10.455-12.287,19.712c0.781,7.475,9.755,14.518,16.197,17.665
		c16.099,6.977,37.76-1.064,44.021-17.512c2.431-6.793,0.234-13.187,6.594-18.946c6.011-5.044,14.219-3.695,20.578-9.455
		C688.783,286.87,679.678,265.576,670.988,250.692z"/>
</g>
<g>
	<rect x="213" y="433" fill="#FFEE4C" width="92" height="71"/>
	<rect x="310" y="433" fill="#FFEE4C" width="15" height="34"/>
	<rect x="193" y="433" fill="#FFEE4C" width="14" height="34"/>
</g>
<polyline fill="#A05845" points="213,364 213,502.407 213,502.407 "/>
<g>
	<g>
		<path fill="none" stroke="#1B2335" stroke-width="9" stroke-miterlimit="10" d="M305.271,361.43c-0.026-0.501-0.061-1-0.104-1.497
			"/>
		<path fill="none" stroke="#1B2335" stroke-width="9" stroke-miterlimit="10" stroke-dasharray="2.9681,4.9469" d="
			M304.486,355.034c-4.131-21.259-22.82-37.304-45.288-37.304c-24.163,0-43.956,18.56-45.968,42.202"/>
		<path fill="none" stroke="#1B2335" stroke-width="9" stroke-miterlimit="10" d="M213.086,362.407
			c-0.016,0.498-0.023,0.998-0.023,1.5"/>
	</g>
</g>
<path fill="#A05845" d="M305,502.407L305,502.407v-138.5c0-0.831-0.021-1.658-0.064-2.478"/>
<path fill="#F0976B" d="M567,73.854c-29.847,0-54,24.196-54,54.044v243.199c0,29.847,24.153,54.045,54,54.045s54-24.198,54-54.045
	V127.899C621,98.05,596.847,73.854,567,73.854z"/>
<polygon fill="#FA5847" points="539.355,182.25 546.008,182.25 542.68,165.455 539.355,148.585 536.031,165.416 532.709,182.25 "/>
<rect x="571" y="408" fill="#F0976B" width="17" height="266"/>
<polygon fill="#FFFFFF" points="624.668,318 509.001,318 513,206 621,206 "/>
<g>
	<rect x="628" y="206" fill="#F0976B" width="17" height="246"/>
	<rect x="618" y="432" fill="#F0976B" width="10" height="7"/>
</g>
<path fill="#3268E6" d="M513,359v12.098c0,29.847,24.153,54.045,54,54.045s54-24.198,54-54.045V359H513z"/>
<rect x="513" y="331" fill="#3268E6" width="108" height="37"/>
<rect x="547" y="652" fill="#FFFFFF" width="13" height="3"/>
<rect x="547" y="658" fill="#FFFFFF" width="13" height="3"/>
<rect x="569" y="665" fill="#FFFFFF" width="21" height="9"/>
<rect x="569" y="648" fill="#F9F9F9" width="21" height="17"/>
<rect x="573" y="652" fill="#FFFFFF" width="13" height="3"/>
<rect x="573" y="658" fill="#FFFFFF" width="13" height="3"/>
<circle fill="#A05845" cx="637.374" cy="117.625" r="16.948"/>
<g>
	<path fill="#A05845" d="M567,73.854c-11.772,0-22.65,3.776-31.519,10.167c0.003,0.244,0.019,0.484,0.019,0.729
		c0,1.053-0.027,2.1-0.08,3.141C540.068,112.988,562.057,132,588.5,132c12.023,0,23.127-3.935,32.101-10.58
		C617.403,94.628,594.652,73.854,567,73.854z"/>
	<path fill="#A05845" d="M535.42,87.891c-0.211-1.139-0.387-2.29-0.524-3.452C521.609,94.283,513,110.082,513,127.899v4.038
		C525.965,121.414,534.515,105.664,535.42,87.891z"/>
	<path fill="#A05845" d="M535.42,87.891c0.053-1.041,0.08-2.087,0.08-3.141c0-0.245-0.016-0.485-0.019-0.729
		c-0.194,0.14-0.394,0.275-0.586,0.417C535.033,85.601,535.209,86.751,535.42,87.891z"/>
</g>
<path fill="none" stroke="#F0976B" stroke-width="18" stroke-miterlimit="10" d="M503,214.333c0,0-161,105-161-29"/>
<rect x="333" y="152" fill="#F0976B" width="4" height="31"/>
<rect x="333" y="169" fill="#F0976B" width="18" height="18"/>
<polygon fill="#F0976B" points="357,156 337,158 337,165 357,165 "/>
<polygon fill="#F0976B" points="337,172 357,170 357,162 337,162 "/>
<line fill="none" stroke="#008B4C" stroke-width="2" stroke-miterlimit="10" x1="332" y1="181" x2="352" y2="181"/>
<line fill="none" stroke="#3268E6" stroke-miterlimit="10" x1="332" y1="184.5" x2="352" y2="184.5"/>
<line fill="none" stroke="#FFEE4C" stroke-width="2" stroke-miterlimit="10" x1="332" y1="187" x2="352" y2="187"/>
<path fill="#A05845" d="M621.901,115.467c-0.513,1.451-0.8,2.943-0.882,4.463l1.062-3.715
	C622.032,115.972,621.975,115.724,621.901,115.467z"/>
<path fill="#A05845" d="M621,120c0.007-0.004,0.011-0.01,0.018-0.015c0.001-0.019,0.001-0.037,0.002-0.055L621,120z"/>
<path fill="#A05845" d="M623,113c-0.452,0.805-0.803,1.631-1.099,2.467c0.073,0.256,0.131,0.504,0.18,0.749L623,113z"/>
<path fill="#A05845" d="M622.081,116.216l-1.062,3.715c-0.001,0.018-0.001,0.036-0.002,0.055
	C622.15,119.216,622.411,117.867,622.081,116.216z"/>
<polygon fill="#3268E6" points="563,425 513,375.625 538.956,626 563,626 "/>
<polygon fill="#3268E6" points="620.859,375.625 571,425 571,626 595.118,626 "/>
</svg>
