<?xml version="1.0" encoding="utf-8"?>
<!-- Generator: Adobe Illustrator 16.0.0, SVG Export Plug-In . SVG Version: 6.00 Build 0)  -->
<!DOCTYPE svg PUBLIC "-//W3C//DTD SVG 1.1//EN" "http://www.w3.org/Graphics/SVG/1.1/DTD/svg11.dtd">
<svg version="1.1" id="Capa_1" xmlns="http://www.w3.org/2000/svg" xmlns:xlink="http://www.w3.org/1999/xlink" x="0px" y="0px"
	 width="690px" height="690px" viewBox="0 0 690 690" enable-background="new 0 0 690 690" xml:space="preserve">
<rect x="-1567" y="-55" display="none" fill="#53B0E3" width="2325" height="800"/>
<g>
	<path fill="#F0976B" d="M258,312.784c-23.877,0-43,19.356-43,43.236V486h0.963c2.709,21,20.832,37.714,42.837,37.714
		S298.928,507,301.638,486H301V356.02C301,332.14,281.878,312.784,258,312.784z"/>
	<polygon fill="#FA5847" points="259.084,399.5 264.406,399.5 261.744,386.064 259.084,372.568 256.425,386.033 253.768,399.5 	"/>
	<rect x="263" y="518" fill="#F0976B" width="14" height="125"/>
	<rect x="263" y="643" fill="#3268E6" width="14" height="4"/>
	<rect x="238" y="518" fill="#F0976B" width="14" height="125"/>
	<rect x="238" y="643" fill="#3268E6" width="14" height="4"/>
	<rect x="215" y="421" fill="#3EE9AF" width="86" height="66"/>
	<rect x="215" y="486" fill="#FFEE4C" width="86" height="81"/>
	<g>
		<rect x="306" y="421" fill="#F0976B" width="14" height="140"/>
		<rect x="298" y="543" fill="#F0976B" width="8" height="5"/>
	</g>
	<rect x="306" y="421" fill="#3EE9AF" width="14" height="32"/>
	<g>
		<rect x="196" y="421" fill="#F0976B" width="13" height="140"/>
		<rect x="209" y="543" fill="#F0976B" width="8" height="5"/>
	</g>
	<rect x="196" y="421" fill="#3EE9AF" width="13" height="32"/>
	<path fill="#3268E6" d="M258.8,312.533c-24.005,0-43.467,18.467-43.467,43.467h54.373l2.757-8.564l2.754-8.34l2.754,8.451
		l2.753,8.453h21.544C302.268,331,282.806,312.533,258.8,312.533z"/>
	<circle fill="#3268E6" cx="290.8" cy="311.951" r="10.867"/>
	<path fill="#A05845" d="M474,485.7L474,485.7V356.02c0-23.879-19.123-43.236-43-43.236s-43,19.356-43,43.236V485.7l0,0"/>
	<polygon fill="#FA5847" points="431.885,399.5 437.206,399.5 434.544,386.064 431.885,372.568 429.225,386.033 426.567,399.5 	"/>
	<rect x="436" y="643" fill="#3268E6" width="13" height="4"/>
	<path fill="#FA5847" d="M474.438,486h-85.856C390.407,500,399,512.164,411,518.56V643h14V522.952c2,0.301,4.066,0.462,6.209,0.462
		c1.654,0,2.791-0.104,4.791-0.285V643h13V519.264C463,513.084,472.542,501,474.438,486z"/>
	<rect x="411" y="643" fill="#3268E6" width="14" height="4"/>
	<g>
		<rect x="479" y="421" fill="#A05845" width="14" height="140"/>
		<rect x="471" y="543" fill="#A05845" width="8" height="5"/>
	</g>
	<g>
		<rect x="369" y="421" fill="#A05845" width="13" height="140"/>
		<rect x="382" y="543" fill="#A05845" width="8" height="5"/>
	</g>
	<g>
		<rect x="388" y="421" fill="#FFEE4C" width="86" height="66"/>
		<rect x="479" y="421" fill="#FFEE4C" width="14" height="32"/>
		<rect x="369" y="421" fill="#FFEE4C" width="13" height="32"/>
	</g>
	<polyline fill="#A05845" points="388,356 388,485.7 388,485.7 	"/>
	<g>
		<g>
			<path fill="none" stroke="#1B2335" stroke-width="9" stroke-miterlimit="10" d="M474.739,353.699
				c-0.026-0.501-0.062-1-0.104-1.496"/>
			<path fill="none" stroke="#1B2335" stroke-width="9" stroke-miterlimit="10" stroke-dasharray="2.9419,4.9032" d="
				M473.933,347.351c-4.008-19.724-21.424-34.567-42.333-34.567c-22.545,0-41.026,17.257-43.019,39.284"/>
			<path fill="none" stroke="#1B2335" stroke-width="9" stroke-miterlimit="10" d="M388.429,354.52
				c-0.017,0.498-0.025,0.998-0.025,1.5"/>
		</g>
	</g>
	<path fill="#A05845" d="M474,485.7L474,485.7V356.02c0-0.778-0.021-1.552-0.061-2.32"/>
</g>
</svg>
