<?xml version="1.0" encoding="utf-8"?>
<!-- Generator: Adobe Illustrator 16.0.0, SVG Export Plug-In . SVG Version: 6.00 Build 0)  -->
<!DOCTYPE svg PUBLIC "-//W3C//DTD SVG 1.1//EN" "http://www.w3.org/Graphics/SVG/1.1/DTD/svg11.dtd">
<svg version="1.1" id="Capa_1" xmlns="http://www.w3.org/2000/svg" xmlns:xlink="http://www.w3.org/1999/xlink" x="0px" y="0px"
	 width="690px" height="474px" viewBox="0 0 690 474" enable-background="new 0 0 690 474" xml:space="preserve">
<rect x="-2373" y="-267" display="none" fill="#53B0E3" width="3135" height="800"/>
<g display="none">
	<rect x="357" y="217" display="inline" fill="#A05845" width="15" height="150"/>
	<rect x="350" y="347" display="inline" fill="#A05845" width="7" height="7"/>
</g>
<rect x="357" y="217" display="none" fill="#FFEE4C" width="15" height="34"/>
<g>
	<path fill="#F0976B" d="M213,57.726c-25.502,0-46,20.673-46,46.177V243h-0.014c2.893,22,22.25,40.279,45.752,40.279
		S255.596,265,258.488,243H259V103.902C259,78.398,238.5,57.726,213,57.726z"/>
	<polygon fill="#FA5847" points="213.041,144.341 218.725,144.341 215.883,129.99 213.041,115.576 210.201,129.957 207.363,144.341 
			"/>
	<rect x="218" y="321" fill="#F0976B" width="15" height="132"/>
	<rect x="218" y="453" fill="#3268E6" width="15" height="6"/>
	<rect x="191" y="321" fill="#F0976B" width="15" height="132"/>
	<rect x="191" y="453" fill="#3268E6" width="15" height="6"/>
	<rect x="167" y="167" fill="#3EE9AF" width="92" height="71"/>
	<rect x="167" y="237" fill="#FFEE4C" width="92" height="85"/>
	<g>
		<rect x="264" y="167" fill="#F0976B" width="14" height="150"/>
		<rect x="255" y="297" fill="#F0976B" width="9" height="7"/>
	</g>
	<rect x="264" y="167" fill="#3EE9AF" width="14" height="34"/>
	<g>
		<rect x="146" y="167" fill="#F0976B" width="14" height="150"/>
		<rect x="160" y="297" fill="#F0976B" width="9" height="7"/>
	</g>
	<rect x="146" y="167" fill="#3EE9AF" width="14" height="34"/>
	<path fill="#3268E6" d="M212.738,51.577C187.1,51.577,166.314,71,166.314,98h58.072l2.943-9.207l2.941-8.937l2.941,9.07L236.152,98
		h23.01C259.162,71,238.377,51.577,212.738,51.577z"/>
	<circle fill="#3268E6" cx="246.914" cy="50.836" r="11.605"/>
	<path fill="#A05845" d="M466,286.407L466,286.407v-138.5c0-25.504-20.5-46.177-46-46.177c-25.502,0-46,20.673-46,46.177v138.812
		l0,0"/>
	<polygon fill="#FA5847" points="420.596,194.345 426.279,194.345 423.436,179.994 420.596,165.581 417.756,179.962 
		414.916,194.345 	"/>
	<rect x="425" y="453" fill="#3268E6" width="14" height="6"/>
	<path fill="#FA5847" d="M466.043,287h-91.695C376.297,302,386,314.673,399,321.502V453h14V326.194c3,0.321,4.469,0.492,6.758,0.492
		c1.766,0,3.242-0.11,5.242-0.304V453h14V322.256C454,315.654,464.02,303,466.043,287z"/>
	<rect x="399" y="453" fill="#3268E6" width="14" height="6"/>
	<g>
		<rect x="354" y="217" fill="#A05845" width="14" height="150"/>
		<rect x="368" y="347" fill="#A05845" width="9" height="7"/>
	</g>
	<rect x="374" y="217" fill="#FFEE4C" width="92" height="71"/>
	<rect x="354" y="217" fill="#FFEE4C" width="14" height="34"/>
	<polyline fill="#A05845" points="374,148 374,286.407 374,286.407 	"/>
	<g>
		<path fill="#1B2335" d="M461.871,145.666c-0.023-0.45-0.055-0.899-0.094-1.346l8.967-0.775c0.047,0.548,0.086,1.097,0.115,1.648
			L461.871,145.666z"/>
		<path fill="#1B2335" d="M379.066,142.026l-8.912-1.256c0.15-1.065,0.338-2.144,0.557-3.206l8.814,1.822
			C379.344,140.262,379.189,141.149,379.066,142.026z M461.162,139.892c-0.17-0.878-0.371-1.755-0.594-2.607l8.705-2.285
			c0.271,1.039,0.516,2.108,0.723,3.178L461.162,139.892z M380.662,135.075l-8.566-2.758c0.33-1.025,0.699-2.057,1.1-3.066
			l8.367,3.313C381.236,133.392,380.934,134.236,380.662,135.075z M459.205,133.034c-0.316-0.831-0.664-1.661-1.035-2.469
			l8.184-3.747c0.451,0.984,0.875,1.997,1.262,3.01L459.205,133.034z M383.424,128.512l-7.965-4.189
			c0.502-0.958,1.043-1.91,1.607-2.831l7.678,4.694C384.281,126.943,383.838,127.726,383.424,128.512z M456.098,126.614
			c-0.453-0.764-0.939-1.524-1.443-2.259l7.426-5.086c0.611,0.893,1.201,1.816,1.752,2.744L456.098,126.614z M387.27,122.51
			l-7.135-5.487c0.66-0.856,1.354-1.702,2.066-2.514l6.77,5.93C388.385,121.107,387.812,121.804,387.27,122.51z M451.939,120.813
			c-0.578-0.675-1.188-1.342-1.809-1.982l6.455-6.272c0.752,0.775,1.49,1.584,2.191,2.403L451.939,120.813z M392.088,117.24
			l-6.104-6.614c0.795-0.732,1.623-1.45,2.465-2.131l5.664,6.995C393.422,116.05,392.74,116.639,392.088,117.24z M446.854,115.804
			c-0.68-0.564-1.391-1.118-2.117-1.646l5.299-7.275c0.879,0.64,1.742,1.311,2.566,1.996L446.854,115.804z M397.727,112.869
			l-4.887-7.559c0.908-0.587,1.848-1.152,2.793-1.68l4.389,7.857C399.246,111.921,398.473,112.386,397.727,112.869z
			 M440.996,111.733c-0.768-0.441-1.562-0.864-2.359-1.257l3.971-8.076c0.971,0.478,1.939,0.993,2.873,1.53L440.996,111.733z
			 M404.027,109.525l-3.52-8.283c1-0.425,2.023-0.821,3.043-1.178l2.973,8.495C405.688,108.851,404.848,109.176,404.027,109.525z
			 M434.537,108.729c-0.834-0.304-1.689-0.584-2.541-0.833l2.523-8.64c1.039,0.304,2.082,0.646,3.1,1.016L434.537,108.729z
			 M410.805,107.314l-2.037-8.767c1.055-0.245,2.129-0.458,3.193-0.635l1.473,8.879
			C412.557,106.937,411.674,107.112,410.805,107.314z M427.654,106.878c-0.877-0.156-1.766-0.286-2.646-0.384l1.004-8.944
			c1.072,0.121,2.156,0.278,3.223,0.468L427.654,106.878z M417.867,106.185l-0.514-9.043c0.973-0.056,1.961-0.142,2.938-0.142h0.307
			l-0.047,9h-0.26C419.486,106,418.67,106.139,417.867,106.185z"/>
		<path fill="#1B2335" d="M378.656,148h-9c0-1,0.008-1.143,0.025-1.688l8.996,0.305C378.662,147.069,378.656,147,378.656,148z"/>
	</g>
	<path fill="#A05845" d="M466,286.407L466,286.407v-138.5c0-0.831-0.021-1.658-0.064-2.478"/>
	<g>
		<path fill="none" stroke="#A05845" stroke-width="15" stroke-miterlimit="10" d="M478.383,220.511"/>
		
			<rect x="514.767" y="103.559" transform="matrix(0.9446 -0.3283 0.3283 0.9446 -6.4216 176.0801)" fill="#A05845" width="6.999" height="6.998"/>
		<path fill="#FFEE4C" d="M473.211,231.416l-2.254-14.829c0.16-0.025,16.252-2.633,31.295-13.439l8.752,12.182
			C492.912,228.328,474.008,231.296,473.211,231.416z"/>
		<path fill="#A05844" d="M511.004,215.329l-8.752-12.182c12.613-9.062,20.854-21.178,24.492-36.012
			c4.973-20.271,1.404-45.613-10.604-75.325l13.906-5.621c13.213,32.692,17.004,61.128,11.266,84.52
			C536.799,189.111,526.602,204.124,511.004,215.329z"/>
	</g>
</g>
</svg>
